# xmcd
#
# Track frame offsets:
#	150
#	12817
#	25172
#	39835
#	54307
#	70362
#	79387
#	90242
#	103185
#	125940
#
# Disc length: 1820 seconds
#
# Revision: 0
# Processed by: cddbd v1.5.2PL0 Copyright (c) Steve Scherf et al.
# Submitted via: EasyCDDAExtractor 10.5.1.1
#
DISCID=7a071a0a
DTITLE=Harmonizing 4 - Harmonizing 4 - Greatest Hits Volume 2
DYEAR=1900
DGENRE=Gospel
TTITLE0=All Things Are Possible\n
TTITLE1=Farther Along\n
TTITLE2=On the Right Road\n
TTITLE3=God Will Take Care of You - Pt 2\n
TTITLE4=Oh Happy Day\n
TTITLE5=Hallelujah\n
TTITLE6=What a Fellowship\n
TTITLE7=Old Rugged Cross\n
TTITLE8=Amazing Grace\n
TTITLE9=Where Could I Go\n
EXTD=
EXTT0=
EXTT1=
EXTT2=
EXTT3=
EXTT4=
EXTT5=
EXTT6=
EXTT7=
EXTT8=
EXTT9=
PLAYORDER=
